<svg width="117" height="36" viewBox="0 0 117 36" fill="none" xmlns="http://www.w3.org/2000/svg">
<path d="M64.1208 18.8264C64.1208 24.4812 60.1097 28.275 55.4734 28.275C54.5698 28.3113 53.6688 28.1568 52.8306 27.8216C51.9924 27.4865 51.2364 26.9786 50.6132 26.3318V27.1389C50.6132 27.725 50.3163 27.9409 49.7589 27.9409L44.9715 27.9049C44.4871 27.9049 44.1902 27.689 44.1902 27.2829V27.18C44.1902 26.301 45.6383 25.936 45.6383 24.3578V6.41164C45.6383 4.76147 43.9297 4.54043 43.9297 3.63052V3.53285C43.9297 3.12673 44.1172 2.94681 44.784 2.65379L49.5713 0.448433C50.4257 0.0474592 51.1341 0.263368 51.1341 1.18355V11.4238C52.3439 10.4134 53.8953 9.89022 55.4787 9.95872C59.7711 9.95872 64.1208 13.074 64.1208 18.8264ZM58.7032 21.0112C58.7032 16.3846 57.104 11.5266 54.1399 11.5266C52.4312 11.5266 51.1289 13.0277 51.1289 15.2228V21.8543C51.1289 24.3424 52.9886 26.6865 54.9161 26.6865C57.3227 26.6865 58.698 24.6765 58.698 21.0318L58.7032 21.0112Z" fill="#002E33"/>
<path d="M66.3032 27.283V27.1391C66.3032 26.224 67.7149 25.931 67.7149 24.358V16.0815C67.7149 14.4724 66.3032 14.0663 66.3032 13.2644V13.1513C66.3032 12.8223 66.6002 12.6372 67.0846 12.3853L71.7209 10.1131C72.6533 9.67101 73.2472 10.1851 73.2472 10.8431V24.358C73.2472 25.931 74.81 26.2292 74.81 27.1391V27.283C74.81 27.6531 74.4766 27.905 73.9557 27.905H67.1211C66.6366 27.905 66.3032 27.6531 66.3032 27.283ZM66.8242 4.50461C66.8242 2.67453 68.3088 1.31738 70.4706 1.31738C72.6325 1.31738 74.0703 2.67453 74.0703 4.50461C74.0703 6.3347 72.6638 7.72783 70.4706 7.72783C68.2775 7.72783 66.8242 6.37068 66.8242 4.50461Z" fill="#002E33"/>
<path d="M76.7324 27.2828V27.1389C76.7324 26.2238 78.1806 25.9308 78.1806 24.3886V6.39618C78.1806 4.74602 76.7324 4.38103 76.7324 3.62021V3.47113C76.7324 3.10614 77.0294 2.92107 77.4774 2.74115L82.1657 0.468964C83.1346 -0.0091204 83.6868 0.504948 83.6868 1.12697V24.3937C83.6868 25.936 85.2861 26.2238 85.2861 27.144V27.288C85.2861 27.6529 84.9162 27.91 84.4317 27.91H77.5867C77.0658 27.9048 76.7324 27.6529 76.7324 27.2828Z" fill="#002E33"/>
<path d="M87.125 27.2828V27.1389C87.125 26.2238 88.5732 25.9308 88.5732 24.3886V6.39618C88.5732 4.74602 87.125 4.38103 87.125 3.62021V3.47113C87.125 3.10614 87.4219 2.92107 87.8699 2.74115L92.5583 0.468964C93.5272 -0.0091204 94.0794 0.504948 94.0794 1.12697V24.3937C94.0794 25.936 95.6786 26.2238 95.6786 27.144V27.288C95.6786 27.6529 95.3036 27.91 94.8243 27.91H87.9793C87.4584 27.9048 87.125 27.6529 87.125 27.2828Z" fill="#002E33"/>
<path d="M117 10.915V11.0949C117 12.0151 115.849 12.3441 115.109 13.9531L108.092 29.0051C106.904 31.6062 104.966 35.7445 101.153 35.7445C97.8089 35.7445 95.694 33.7293 95.694 31.8273C95.6723 31.5329 95.715 31.2373 95.8194 30.9606C95.9237 30.6839 96.0872 30.4327 96.2988 30.2239C96.5103 30.0152 96.7649 29.8538 97.0453 29.7508C97.3256 29.6478 97.6252 29.6056 97.9236 29.6271C100.966 29.6271 100.007 34.0224 101.929 34.0224C103.232 34.0224 104.716 31.4212 105.753 28.8817L98.3663 13.9582C97.5537 12.3081 96.366 12.0202 96.366 11.1052V10.9201C96.366 10.5551 96.6994 10.3341 97.1422 10.3341H104.081C104.17 10.3255 104.259 10.3352 104.344 10.3624C104.428 10.3896 104.506 10.4338 104.573 10.4923C104.639 10.5507 104.693 10.622 104.73 10.7018C104.768 10.7817 104.788 10.8682 104.789 10.9561V11.1052C104.789 12.0202 103.414 12.1333 104.232 14.0354L108.571 23.9569L112.582 14.5443C113.551 12.2361 110.947 12.0202 110.947 11.1052V10.9561C110.947 10.5911 111.244 10.3341 111.728 10.3341H116.255C116.703 10.3289 117 10.55 117 10.915Z" fill="#002E33"/>
<path d="M19.445 6.25586H13.0807C13.0807 9.49449 13.6314 12.5706 14.6244 15.376H10.6433C8.26909 19.362 4.38731 21.9616 0 21.9616V29.5978C6.80665 29.5978 12.7918 25.406 16.2674 19.0479C19.7429 25.3952 25.7281 29.5978 32.5257 29.5978V21.9616C25.3038 21.9508 19.445 14.9211 19.445 6.25586Z" fill="#002E33"/>
</svg>